<svg xmlns="http://www.w3.org/2000/svg" viewBox="0 0 64 64" width="64" height="64" role="img" aria-label="Villager character sprite">
  <ellipse cx="32" cy="55" rx="14" ry="5" fill="#000000" opacity="0.18"/>
  <path d="M22 31 C22 25 42 25 42 31 L45 49 C44 55 20 55 19 49 Z" fill="#6f82d8" stroke="#34314f" stroke-width="2" stroke-linejoin="round"/>
  <path d="M32 29 L32 55" stroke="#d86f96" stroke-width="3" opacity="0.75"/>
  <path d="M25 51 L25 59 M39 51 L39 59" stroke="#34314f" stroke-width="4" stroke-linecap="round"/>
  <path d="M22 34 C17 38 17 43 20 48 M42 34 C47 38 47 43 44 48" fill="none" stroke="#34314f" stroke-width="4" stroke-linecap="round"/>
  <circle cx="32" cy="19" r="11" fill="#ddb07d" stroke="#4b2d1b" stroke-width="2"/>
  <path d="M22 18 C24 9 40 8 42 18 C36 15 29 15 22 18 Z" fill="#4b3a32" stroke="#4b2d1b" stroke-width="2" stroke-linejoin="round"/>
  <circle cx="28" cy="20" r="1.2" fill="#3a2818"/>
  <circle cx="36" cy="20" r="1.2" fill="#3a2818"/>
  <path d="M29 24 C31 26 34 26 36 24" fill="none" stroke="#8a4b2a" stroke-width="1.4" stroke-linecap="round"/>
</svg>
